<mxfile host="app.diagrams.net" modified="2023-04-12T12:59:03.870Z" agent="Mozilla/5.0 (Macintosh; Intel Mac OS X 10_15_7) AppleWebKit/537.36 (KHTML, like Gecko) Chrome/112.0.0.0 Safari/537.36" etag="n50CYVyPhN11HsADsBje" version="21.1.2" type="device">
  <diagram name="Page-1" id="k6u7vlYr4xTeB4jcNW6k">
    <mxGraphModel dx="1026" dy="623" grid="1" gridSize="10" guides="1" tooltips="1" connect="1" arrows="1" fold="1" page="1" pageScale="1" pageWidth="1169" pageHeight="827" math="0" shadow="0">
      <root>
        <mxCell id="0" />
        <mxCell id="1" parent="0" />
        <mxCell id="Ew9zhP7jz3i-S4SFVFDu-20" value="" style="rounded=1;whiteSpace=wrap;html=1;" vertex="1" parent="1">
          <mxGeometry x="190" y="70" width="920" height="480" as="geometry" />
        </mxCell>
        <mxCell id="Ew9zhP7jz3i-S4SFVFDu-16" style="edgeStyle=orthogonalEdgeStyle;rounded=0;orthogonalLoop=1;jettySize=auto;html=1;exitX=1;exitY=0.5;exitDx=0;exitDy=0;entryX=0;entryY=0.5;entryDx=0;entryDy=0;" edge="1" parent="1" source="Ew9zhP7jz3i-S4SFVFDu-3">
          <mxGeometry relative="1" as="geometry">
            <mxPoint x="280" y="286.25" as="targetPoint" />
          </mxGeometry>
        </mxCell>
        <mxCell id="Ew9zhP7jz3i-S4SFVFDu-3" value="API&lt;br&gt;Gateway" style="rhombus;whiteSpace=wrap;html=1;fillColor=#dae8fc;strokeColor=#6c8ebf;rounded=1;" vertex="1" parent="1">
          <mxGeometry x="150" y="238.75" width="90" height="95" as="geometry" />
        </mxCell>
        <mxCell id="Ew9zhP7jz3i-S4SFVFDu-5" value="Load Balancer" style="rounded=1;whiteSpace=wrap;html=1;fillColor=#dae8fc;strokeColor=#6c8ebf;" vertex="1" parent="1">
          <mxGeometry x="280" y="247.5" width="100" height="77.5" as="geometry" />
        </mxCell>
        <mxCell id="Ew9zhP7jz3i-S4SFVFDu-19" value="Function Registry" style="rounded=1;whiteSpace=wrap;html=1;fillColor=#e1d5e7;strokeColor=#9673a6;" vertex="1" parent="1">
          <mxGeometry x="990" y="270" width="90" height="70" as="geometry" />
        </mxCell>
        <mxCell id="Ew9zhP7jz3i-S4SFVFDu-40" style="edgeStyle=orthogonalEdgeStyle;rounded=0;orthogonalLoop=1;jettySize=auto;html=1;exitX=1;exitY=0.5;exitDx=0;exitDy=0;entryX=0.5;entryY=0;entryDx=0;entryDy=0;dashed=1;" edge="1" parent="1" source="Ew9zhP7jz3i-S4SFVFDu-22" target="Ew9zhP7jz3i-S4SFVFDu-19">
          <mxGeometry relative="1" as="geometry" />
        </mxCell>
        <mxCell id="Ew9zhP7jz3i-S4SFVFDu-41" value="Retrieves the deployed&lt;br&gt;Function executables" style="edgeLabel;html=1;align=center;verticalAlign=middle;resizable=0;points=[];" vertex="1" connectable="0" parent="Ew9zhP7jz3i-S4SFVFDu-40">
          <mxGeometry x="-0.1294" relative="1" as="geometry">
            <mxPoint y="-20" as="offset" />
          </mxGeometry>
        </mxCell>
        <mxCell id="Ew9zhP7jz3i-S4SFVFDu-22" value="" style="rounded=1;whiteSpace=wrap;html=1;fillColor=#f5f5f5;fontColor=#333333;strokeColor=#666666;" vertex="1" parent="1">
          <mxGeometry x="420" y="90" width="530" height="210" as="geometry" />
        </mxCell>
        <mxCell id="Ew9zhP7jz3i-S4SFVFDu-12" style="edgeStyle=orthogonalEdgeStyle;rounded=0;orthogonalLoop=1;jettySize=auto;html=1;entryX=0;entryY=0.5;entryDx=0;entryDy=0;" edge="1" parent="1" source="Ew9zhP7jz3i-S4SFVFDu-1" target="Ew9zhP7jz3i-S4SFVFDu-2">
          <mxGeometry relative="1" as="geometry">
            <Array as="points">
              <mxPoint x="580" y="175" />
              <mxPoint x="580" y="130" />
            </Array>
          </mxGeometry>
        </mxCell>
        <mxCell id="Ew9zhP7jz3i-S4SFVFDu-1" value="/get&lt;br&gt;{wasm_module_name}" style="rounded=1;whiteSpace=wrap;html=1;fillColor=#dae8fc;strokeColor=#6c8ebf;" vertex="1" parent="1">
          <mxGeometry x="440" y="140" width="130" height="70" as="geometry" />
        </mxCell>
        <mxCell id="Ew9zhP7jz3i-S4SFVFDu-13" style="edgeStyle=orthogonalEdgeStyle;rounded=0;orthogonalLoop=1;jettySize=auto;html=1;exitX=0.5;exitY=1;exitDx=0;exitDy=0;entryX=0.5;entryY=0;entryDx=0;entryDy=0;" edge="1" parent="1" source="Ew9zhP7jz3i-S4SFVFDu-2" target="Ew9zhP7jz3i-S4SFVFDu-6">
          <mxGeometry relative="1" as="geometry" />
        </mxCell>
        <mxCell id="Ew9zhP7jz3i-S4SFVFDu-43" value="calls with&lt;br&gt;&amp;nbsp;the parameters" style="edgeLabel;html=1;align=center;verticalAlign=middle;resizable=0;points=[];" vertex="1" connectable="0" parent="Ew9zhP7jz3i-S4SFVFDu-13">
          <mxGeometry x="-0.5" y="2" relative="1" as="geometry">
            <mxPoint x="48" y="7" as="offset" />
          </mxGeometry>
        </mxCell>
        <mxCell id="Ew9zhP7jz3i-S4SFVFDu-2" value="Handler function" style="rounded=1;whiteSpace=wrap;html=1;fillColor=#fff2cc;strokeColor=#d6b656;" vertex="1" parent="1">
          <mxGeometry x="610" y="100" width="120" height="60" as="geometry" />
        </mxCell>
        <mxCell id="Ew9zhP7jz3i-S4SFVFDu-15" style="edgeStyle=orthogonalEdgeStyle;rounded=0;orthogonalLoop=1;jettySize=auto;html=1;exitX=1;exitY=0.5;exitDx=0;exitDy=0;entryX=0;entryY=0.5;entryDx=0;entryDy=0;" edge="1" parent="1" source="Ew9zhP7jz3i-S4SFVFDu-5" target="Ew9zhP7jz3i-S4SFVFDu-1">
          <mxGeometry relative="1" as="geometry">
            <Array as="points">
              <mxPoint x="410" y="286" />
              <mxPoint x="410" y="175" />
            </Array>
          </mxGeometry>
        </mxCell>
        <mxCell id="Ew9zhP7jz3i-S4SFVFDu-44" value="redirects&lt;br&gt;to" style="edgeLabel;html=1;align=center;verticalAlign=middle;resizable=0;points=[];" vertex="1" connectable="0" parent="Ew9zhP7jz3i-S4SFVFDu-15">
          <mxGeometry x="0.0261" y="2" relative="1" as="geometry">
            <mxPoint x="-28" y="-18" as="offset" />
          </mxGeometry>
        </mxCell>
        <mxCell id="Ew9zhP7jz3i-S4SFVFDu-37" style="edgeStyle=orthogonalEdgeStyle;rounded=0;orthogonalLoop=1;jettySize=auto;html=1;entryX=0;entryY=0.5;entryDx=0;entryDy=0;" edge="1" parent="1" source="Ew9zhP7jz3i-S4SFVFDu-6" target="Ew9zhP7jz3i-S4SFVFDu-7">
          <mxGeometry relative="1" as="geometry" />
        </mxCell>
        <mxCell id="Ew9zhP7jz3i-S4SFVFDu-42" value="invokes" style="edgeLabel;html=1;align=center;verticalAlign=middle;resizable=0;points=[];" vertex="1" connectable="0" parent="Ew9zhP7jz3i-S4SFVFDu-37">
          <mxGeometry x="-0.1571" y="2" relative="1" as="geometry">
            <mxPoint y="15" as="offset" />
          </mxGeometry>
        </mxCell>
        <mxCell id="Ew9zhP7jz3i-S4SFVFDu-6" value="Wasm Invoker" style="rounded=1;whiteSpace=wrap;html=1;fillColor=#fff2cc;strokeColor=#d6b656;" vertex="1" parent="1">
          <mxGeometry x="610" y="210" width="120" height="60" as="geometry" />
        </mxCell>
        <mxCell id="Ew9zhP7jz3i-S4SFVFDu-7" value="Wasm Module" style="rounded=1;whiteSpace=wrap;html=1;fillColor=#fff2cc;strokeColor=#d6b656;" vertex="1" parent="1">
          <mxGeometry x="780" y="190" width="120" height="60" as="geometry" />
        </mxCell>
        <mxCell id="Ew9zhP7jz3i-S4SFVFDu-8" value="Wasm Module" style="rounded=1;whiteSpace=wrap;html=1;fillColor=#fff2cc;strokeColor=#d6b656;" vertex="1" parent="1">
          <mxGeometry x="790" y="200" width="120" height="60" as="geometry" />
        </mxCell>
        <mxCell id="Ew9zhP7jz3i-S4SFVFDu-9" value="Wasm Module" style="rounded=1;whiteSpace=wrap;html=1;fillColor=#fff2cc;strokeColor=#d6b656;" vertex="1" parent="1">
          <mxGeometry x="800" y="210" width="120" height="60" as="geometry" />
        </mxCell>
        <mxCell id="Ew9zhP7jz3i-S4SFVFDu-11" value="Wasm Module" style="rounded=1;whiteSpace=wrap;html=1;fillColor=#fff2cc;strokeColor=#d6b656;" vertex="1" parent="1">
          <mxGeometry x="810" y="220" width="120" height="60" as="geometry" />
        </mxCell>
        <mxCell id="Ew9zhP7jz3i-S4SFVFDu-39" style="edgeStyle=orthogonalEdgeStyle;rounded=0;orthogonalLoop=1;jettySize=auto;html=1;exitX=1;exitY=0.5;exitDx=0;exitDy=0;entryX=0.5;entryY=1;entryDx=0;entryDy=0;dashed=1;" edge="1" parent="1" source="Ew9zhP7jz3i-S4SFVFDu-23" target="Ew9zhP7jz3i-S4SFVFDu-19">
          <mxGeometry relative="1" as="geometry" />
        </mxCell>
        <mxCell id="Ew9zhP7jz3i-S4SFVFDu-23" value="" style="rounded=1;whiteSpace=wrap;html=1;fillColor=#f5f5f5;fontColor=#333333;strokeColor=#666666;" vertex="1" parent="1">
          <mxGeometry x="420" y="316.25" width="530" height="210" as="geometry" />
        </mxCell>
        <mxCell id="Ew9zhP7jz3i-S4SFVFDu-24" style="edgeStyle=orthogonalEdgeStyle;rounded=0;orthogonalLoop=1;jettySize=auto;html=1;entryX=0;entryY=0.5;entryDx=0;entryDy=0;dashed=1;" edge="1" parent="1" source="Ew9zhP7jz3i-S4SFVFDu-25" target="Ew9zhP7jz3i-S4SFVFDu-27">
          <mxGeometry relative="1" as="geometry">
            <Array as="points">
              <mxPoint x="580" y="401" />
              <mxPoint x="580" y="356" />
            </Array>
          </mxGeometry>
        </mxCell>
        <mxCell id="Ew9zhP7jz3i-S4SFVFDu-25" value="" style="rounded=1;whiteSpace=wrap;html=1;fillColor=#dae8fc;strokeColor=#6c8ebf;" vertex="1" parent="1">
          <mxGeometry x="440" y="366.25" width="130" height="70" as="geometry" />
        </mxCell>
        <mxCell id="Ew9zhP7jz3i-S4SFVFDu-26" style="edgeStyle=orthogonalEdgeStyle;rounded=0;orthogonalLoop=1;jettySize=auto;html=1;exitX=0.5;exitY=1;exitDx=0;exitDy=0;entryX=0.5;entryY=0;entryDx=0;entryDy=0;dashed=1;" edge="1" parent="1" source="Ew9zhP7jz3i-S4SFVFDu-27" target="Ew9zhP7jz3i-S4SFVFDu-29">
          <mxGeometry relative="1" as="geometry" />
        </mxCell>
        <mxCell id="Ew9zhP7jz3i-S4SFVFDu-27" value="" style="rounded=1;whiteSpace=wrap;html=1;fillColor=#fff2cc;strokeColor=#d6b656;" vertex="1" parent="1">
          <mxGeometry x="610" y="326.25" width="120" height="60" as="geometry" />
        </mxCell>
        <mxCell id="Ew9zhP7jz3i-S4SFVFDu-28" style="edgeStyle=orthogonalEdgeStyle;rounded=0;orthogonalLoop=1;jettySize=auto;html=1;exitX=1;exitY=0.5;exitDx=0;exitDy=0;entryX=0;entryY=0.5;entryDx=0;entryDy=0;dashed=1;" edge="1" parent="1" source="Ew9zhP7jz3i-S4SFVFDu-29" target="Ew9zhP7jz3i-S4SFVFDu-30">
          <mxGeometry relative="1" as="geometry" />
        </mxCell>
        <mxCell id="Ew9zhP7jz3i-S4SFVFDu-29" value="" style="rounded=1;whiteSpace=wrap;html=1;fillColor=#fff2cc;strokeColor=#d6b656;" vertex="1" parent="1">
          <mxGeometry x="610" y="416.25" width="120" height="60" as="geometry" />
        </mxCell>
        <mxCell id="Ew9zhP7jz3i-S4SFVFDu-30" value="Wasm Module" style="rounded=1;whiteSpace=wrap;html=1;fillColor=#fff2cc;strokeColor=#d6b656;" vertex="1" parent="1">
          <mxGeometry x="780" y="416.25" width="120" height="60" as="geometry" />
        </mxCell>
        <mxCell id="Ew9zhP7jz3i-S4SFVFDu-31" value="Wasm Module" style="rounded=1;whiteSpace=wrap;html=1;fillColor=#fff2cc;strokeColor=#d6b656;" vertex="1" parent="1">
          <mxGeometry x="790" y="426.25" width="120" height="60" as="geometry" />
        </mxCell>
        <mxCell id="Ew9zhP7jz3i-S4SFVFDu-32" value="Wasm Module" style="rounded=1;whiteSpace=wrap;html=1;fillColor=#fff2cc;strokeColor=#d6b656;" vertex="1" parent="1">
          <mxGeometry x="800" y="436.25" width="120" height="60" as="geometry" />
        </mxCell>
        <mxCell id="Ew9zhP7jz3i-S4SFVFDu-33" value="" style="rounded=1;whiteSpace=wrap;html=1;fillColor=#fff2cc;strokeColor=#d6b656;" vertex="1" parent="1">
          <mxGeometry x="810" y="446.25" width="120" height="60" as="geometry" />
        </mxCell>
        <mxCell id="Ew9zhP7jz3i-S4SFVFDu-34" style="edgeStyle=orthogonalEdgeStyle;rounded=0;orthogonalLoop=1;jettySize=auto;html=1;exitX=1;exitY=0.5;exitDx=0;exitDy=0;entryX=0;entryY=0.5;entryDx=0;entryDy=0;dashed=1;" edge="1" parent="1" source="Ew9zhP7jz3i-S4SFVFDu-5" target="Ew9zhP7jz3i-S4SFVFDu-25">
          <mxGeometry relative="1" as="geometry">
            <Array as="points">
              <mxPoint x="410" y="286" />
              <mxPoint x="410" y="401" />
            </Array>
          </mxGeometry>
        </mxCell>
      </root>
    </mxGraphModel>
  </diagram>
</mxfile>
